<svg width="200" height="200" viewBox="0 0 200 200" fill="none" xmlns="http://www.w3.org/2000/svg">
<path fill-rule="evenodd" clip-rule="evenodd" d="M87.7166 0.681015C89.9402 0.403107 91.4162 0.268936 94.0282 0.0964355C95.8149 -0.0185547 104.904 -0.0377197 105.923 0.0772705C106.166 0.106018 106.778 0.153946 107.283 0.192276C108.914 0.297684 112.031 0.633102 114.08 0.920593C124.509 2.39641 134.471 5.46303 143.987 10.1205C162.106 18.9849 177.167 33.168 187.071 50.6956C194.335 63.5371 198.559 77.4519 199.782 92.5262C199.986 95.0945 200.073 102.071 199.928 104.85C199.17 119.302 195.636 132.622 189.169 145.368C179.352 164.726 163.505 180.337 143.987 189.882C131.898 195.795 119.197 199.11 105.438 199.944C104.01 200.03 94.8827 200.011 94.0768 199.925C93.834 199.896 93.2514 199.848 92.7659 199.81C80.3466 198.995 67.3058 195.459 55.8186 189.805C54.43 189.115 52.2452 187.994 52.0802 187.879C52.0316 187.841 51.7889 187.697 51.5461 187.572C49.8468 186.643 49.07 186.183 47.128 184.975C33.4948 176.475 22.1145 164.841 13.9482 151.079C13.2005 149.824 12.8412 149.182 11.7537 147.189C10.1127 144.189 8.01527 139.589 6.63642 135.986C2.77176 125.904 0.645229 115.794 0.0723276 104.85C-0.0733254 102.061 0.0140664 95.0945 0.217981 92.5262C1.16958 80.7964 3.8496 70.1207 8.46194 59.608C11.7149 52.181 16.0262 44.9649 21.0367 38.525C37.3692 17.5474 61.3825 3.92014 87.7166 0.681015ZM60.4989 68.5874C59.1395 67.6962 57.2363 66.9008 55.6924 66.5941C54.0513 66.2683 50.3615 66.345 48.7301 66.7379C48.1475 66.8795 48.0862 66.898 47.2629 67.1462C47.1394 67.1834 46.9988 67.2258 46.8367 67.2745C41.5058 68.8653 35.2621 73.6857 30.174 80.116C27.8338 83.0772 25.212 87.3705 23.7264 90.7054C23.4739 91.2612 23.1826 91.9033 23.0758 92.1429C22.6777 92.9958 21.6193 95.8612 21.2406 97.1261C20.6385 99.0715 20.3958 100.001 20.0753 101.582L20.0236 101.829C19.879 102.517 19.7529 103.117 19.7355 103.211C19.6093 103.796 19.3082 106.173 19.2208 107.342C19.0849 109.019 19.0849 111.386 19.2111 112.89C19.6384 117.96 21.3959 122.665 24.1925 126.259C25.3286 127.706 27.5231 129.623 29.3195 130.734C30.3876 131.396 32.4073 132.344 33.4366 132.67L33.5031 132.692C34.0119 132.856 34.4788 133.007 34.5533 133.034C35.0582 133.226 36.7478 133.542 37.7285 133.628C39.3307 133.772 42.5933 133.571 43.9139 133.245C44.1372 133.197 44.3994 133.14 44.5062 133.111C45.1956 132.986 47.5746 132.277 48.099 132.047C48.1144 132.041 48.1325 132.034 48.153 132.025C48.3509 131.945 48.7692 131.774 49.1477 131.635C49.9925 131.3 52.2258 130.217 53.3619 129.584C56.7119 127.706 59.7609 125.31 62.5478 122.349C62.8585 122.023 63.1304 121.755 63.1498 121.755C63.1692 121.755 63.344 122.033 63.5382 122.378C65.121 125.186 68.335 127.122 71.3938 127.122C72.0735 127.122 73.53 126.863 73.967 126.671C75.7633 125.876 76.8315 125.138 77.7636 124.036C78.2297 123.489 78.2589 123.461 78.3171 123.681C78.4822 124.285 79.1522 125.397 79.6086 125.818C80.4631 126.604 81.8711 127.122 83.1819 127.122C85.1046 127.122 88.8333 125.464 92.6008 122.943C93.2611 122.502 93.834 122.138 93.8923 122.138C93.9408 122.138 93.9603 122.234 93.9408 122.349C93.9117 122.474 93.834 122.828 93.7758 123.144C93.7546 123.243 93.7334 123.343 93.7137 123.435C93.6701 123.64 93.6338 123.81 93.6204 123.863C93.4456 124.524 93.3679 125.607 93.4747 125.952C93.8923 127.332 95.5722 127.62 97.5045 126.642C99.1261 125.809 100.34 124.362 100.728 122.79L100.732 122.777C100.818 122.446 100.903 122.118 100.922 122.042C100.942 121.966 101.136 121.075 101.35 120.078C101.563 119.072 101.835 117.979 101.942 117.634C102.496 115.948 104.243 113.092 105.991 111.022C107.137 109.651 109.38 107.466 110.39 106.719C111.283 106.048 112.245 105.559 112.623 105.559C113.322 105.569 113.322 106.039 112.604 108.099C110.749 113.418 110.264 115.104 109.642 118.257C109.409 119.436 109.409 121.822 109.642 122.761C109.924 123.892 110.584 125.09 111.235 125.694C111.817 126.221 112.74 126.729 113.449 126.92C114.187 127.122 115.527 127.15 116.469 126.987C119.896 126.403 124.567 123.902 127.548 121.055C128.043 120.586 128.48 120.231 128.538 120.26C128.597 120.298 128.665 120.48 128.694 120.682C128.985 122.445 129.296 123.739 129.665 124.735C130.461 126.863 130.859 127.217 132.461 127.217C135.617 127.217 140.666 123.47 145.424 117.596C146.56 116.206 147.939 114.357 148.036 114.136C148.075 114.031 148.289 114.012 149.066 114.06C150.687 114.146 152.309 113.782 154.028 112.929C154.445 112.718 154.814 112.574 154.834 112.593C154.853 112.613 154.804 112.881 154.717 113.188C154.662 113.388 154.606 113.596 154.566 113.749C154.542 113.837 154.524 113.906 154.513 113.945C154.28 114.826 154.173 116.091 154.212 117.538C154.251 119.081 154.261 119.148 154.649 120.289C155.105 121.63 155.29 122.014 155.94 122.972C156.941 124.438 158.387 125.674 159.961 126.412C161.135 126.968 161.796 127.131 163.116 127.189C164.553 127.256 165.554 127.064 166.796 126.489C167.913 125.972 168.69 125.425 169.574 124.544C169.943 124.17 170.282 123.863 170.321 123.863C170.35 123.863 170.457 124.093 170.535 124.381C171.467 127.524 173.632 129.929 176.953 131.501C177.847 131.923 177.983 131.961 178.653 131.961C179.196 131.961 179.459 131.913 179.653 131.789C180.527 131.223 180.43 130.044 179.459 129.249C178.313 128.31 177.361 126.489 176.915 124.39C176.837 124.017 176.837 120.864 176.924 120.365C176.953 120.155 177.225 118.88 177.526 117.538C178.342 113.945 178.381 113.715 178.313 113.159C178.245 112.584 177.847 111.97 177.39 111.74C176.206 111.137 174.283 111.788 172.729 113.322C171.807 114.223 171.409 114.874 171.079 116.005C170.166 119.148 168.36 121.65 166.253 122.684C165.592 123.001 165.505 123.02 164.835 122.982C163.612 122.905 162.786 122.32 162.058 121.017C161.301 119.647 160.98 118.209 160.98 116.158C160.98 114.069 161.281 112.383 161.971 110.543C163.097 107.562 164.922 105.157 167 103.911C168.855 102.809 171.098 102.531 172.817 103.202C174.118 103.71 174.769 104.563 174.769 105.751C174.759 106.882 174.429 107.313 173.04 107.993C172.224 108.396 172.069 108.636 172.283 109.143C172.555 109.795 173.458 110.198 175.002 110.37C176.235 110.504 177.361 110.332 178.4 109.843C180.226 108.981 181.07 107.476 180.944 105.291C180.808 102.876 179.721 101.419 177.167 100.241C175.138 99.3015 171.467 99.014 168.68 99.5794C166.33 100.049 163.99 101.103 161.864 102.665C161.456 102.953 160.145 104.179 158.941 105.368C157.737 106.566 156.513 107.735 156.222 107.965C155.067 108.875 153.571 109.402 152.047 109.421C151.182 109.431 150.901 109.364 151.056 109.172C151.289 108.875 152.387 106.278 152.814 105.013C153.493 102.991 153.639 102.176 153.639 100.337C153.639 99.0428 153.61 98.6786 153.426 97.9886C152.882 95.9953 151.357 94.3374 149.619 93.8583C149.376 93.7912 149.114 93.7145 149.037 93.6858C148.823 93.6187 146.696 93.6187 146.415 93.6954C144.628 94.1745 143.783 94.6441 142.628 95.7845C141.569 96.8291 141.055 97.6436 140.482 99.1674C139.948 100.605 139.773 101.736 139.783 103.739C139.783 105.09 139.822 105.607 139.996 106.412C140.521 108.875 141.841 111.089 143.492 112.268C143.822 112.507 144.084 112.737 144.084 112.795C144.084 113.13 141.346 116.868 139.948 118.449C138.248 120.365 136.588 121.927 136.054 122.081C135.704 122.186 135.559 121.812 135.248 120.02C134.685 116.666 134.5 113.887 134.704 111.597C134.801 110.418 135.219 107.84 135.442 106.949C135.549 106.527 135.656 106.096 135.675 105.991C135.753 105.655 136.51 103.135 136.763 102.406C137.2 101.141 137.19 100.442 136.734 99.9053C136.365 99.4644 135.967 99.3015 135.248 99.3015C133.908 99.2919 132.238 100.183 130.81 101.669C129.519 103.01 129.053 104.131 128.645 106.901C128.305 109.239 128.257 109.958 128.237 112.929L128.228 115.478L127.684 116.149C124.479 120.116 118.974 123.125 117.051 121.947C116.634 121.697 116.313 121.065 116.313 120.5C116.323 120.155 117.061 116.446 117.226 115.909C117.255 115.833 117.478 114.989 117.721 114.04C117.954 113.092 118.42 111.453 118.741 110.399C119.345 108.415 119.371 108.347 119.434 108.187C119.439 108.174 119.444 108.161 119.45 108.147C119.721 107.457 120.712 104.314 120.828 103.758C121.023 102.809 121.023 101.41 120.809 100.816C120.595 100.193 119.984 99.5986 119.314 99.3686C118.527 99.1003 117.032 99.1386 115.799 99.4644C112.555 100.317 108.331 103.164 105.234 106.575C104.243 107.668 103.981 107.898 103.981 107.687C103.981 107.648 104.088 107.208 104.214 106.709C104.574 105.329 105.273 102.119 105.321 101.621C105.35 101.304 105.302 101.055 105.146 100.739C104.709 99.8286 104.078 99.5603 102.67 99.6657C100.301 99.8382 98.9319 100.576 98.1162 102.1C97.7764 102.761 97.6307 103.298 97.2326 105.464C97.1665 105.835 97.0978 106.201 97.0445 106.484C96.996 106.743 96.9603 106.933 96.951 106.997C96.7859 107.744 96.4655 109.373 96.1742 110.926C95.9897 111.903 95.8052 112.804 95.7761 112.938C95.7469 113.073 95.5624 113.993 95.3682 114.999C95.173 116.037 95.0968 116.53 94.8615 116.928C94.6169 117.342 94.2005 117.654 93.3 118.372C90.7656 120.394 87.5224 122.234 86.4931 122.234C86.0659 122.234 85.4541 121.956 85.2502 121.669C84.8424 121.103 84.823 120.749 85.1337 118.957C85.425 117.318 85.5124 116.868 85.9202 115.19C86.0367 114.711 86.1338 113.964 86.1435 113.513C86.163 112.584 85.9979 112.191 85.4444 111.817C84.0947 110.916 81.2108 112.143 79.7834 114.213C79.3173 114.893 79.1619 115.238 78.8609 116.321C78.1618 118.842 76.5984 121.19 74.8894 122.32C74.0349 122.886 73.5591 123.029 72.7629 122.982C71.5103 122.905 70.3936 122.014 69.6556 120.49C69.0245 119.187 68.8885 118.497 68.8982 116.436C68.8982 114.357 69.0924 113.159 69.743 111.194C71.1607 106.891 73.6368 104.055 76.7926 103.087C78.6084 102.541 81.0263 102.924 82.007 103.93C82.8421 104.783 82.9392 106.383 82.2012 107.112C82.0458 107.265 81.5798 107.553 81.1719 107.763C80.2592 108.214 80.1524 108.329 80.2203 108.789C80.3174 109.383 80.9195 109.843 81.9002 110.063C81.9725 110.082 82.0463 110.1 82.1169 110.118C82.3022 110.165 82.4654 110.206 82.5216 110.226C82.7353 110.303 84.687 110.313 84.8521 110.236C84.9298 110.207 85.2988 110.083 85.6677 109.968C86.8233 109.623 87.872 108.77 88.3478 107.821C88.4546 107.591 88.6391 107.006 88.7459 106.508C88.9595 105.54 88.9304 105.051 88.5711 103.739C87.9788 101.554 85.8231 99.9915 82.5508 99.3686C81.3564 99.1386 78.1618 99.1386 76.9383 99.3686C75.909 99.5603 74.6758 99.8669 74.2971 100.02C74.2039 100.055 74.1177 100.089 74.0573 100.113C74.0171 100.13 73.9883 100.141 73.9767 100.145C73.8407 100.193 73.462 100.356 72.7143 100.691C68.6361 102.531 65.1404 106.345 63.344 110.926C62.606 112.795 62.2079 114.884 62.1885 117.03L62.1788 118.401L61.1592 119.417C59.4114 121.161 57.8577 122.368 55.6244 123.691C53.8863 124.726 51.1674 126.087 50.041 126.499C49.507 126.69 49.002 126.872 48.9244 126.901C48.7598 126.969 48.7343 126.977 48.1454 127.148C48.0739 127.168 47.9941 127.191 47.9048 127.217C46.0404 127.764 43.0691 128.013 41.1659 127.802C36.6798 127.284 33.1161 124.649 30.7663 120.116C29.7079 118.056 28.9893 115.919 28.6397 113.695C28.2902 111.539 28.2319 108.128 28.4844 105.655C28.6203 104.352 28.999 101.946 29.1544 101.391C29.1709 101.331 29.2185 101.133 29.2814 100.872C29.3296 100.671 29.3867 100.434 29.4457 100.193C30.9799 93.7049 34.4367 86.3259 38.6315 80.6335C43.2148 74.4044 48.3709 70.437 52.5754 69.8716C52.7307 69.8524 53.0415 69.8045 53.2648 69.7662C53.7794 69.6799 54.8961 69.9195 55.6729 70.2836C56.9061 70.8491 58.0714 72.2578 58.5763 73.7528C58.7247 74.1965 58.8065 74.4372 58.8652 74.6835C58.941 75.001 58.9785 75.3276 59.0715 76.1102C59.3919 78.8318 59.3046 81.0839 58.8288 82.6076C58.0811 85.0322 56.9741 86.6517 54.5174 88.9325C53.1774 90.1783 52.9832 90.485 53.158 91.1558C53.2939 91.7021 53.6532 91.9033 54.4883 91.8937C55.4399 91.8841 56.4886 91.5775 57.9451 90.8875C60.0037 89.9196 61.3825 88.9517 62.8196 87.4759C64.985 85.2622 66.0337 82.713 66.1502 79.3973C66.1794 78.7648 66.0046 77.1931 65.8104 76.2348C65.1986 73.2353 63.2081 70.3795 60.4989 68.5874ZM144.075 99.2057C144.201 98.2761 144.502 97.6436 144.958 97.337C145.463 97.0015 146.017 97.0782 146.609 97.5765C147.463 98.3049 147.881 99.6465 147.92 101.793C147.939 102.991 147.9 103.432 147.726 104.285C147.463 105.521 147.104 106.824 146.997 106.939C146.891 107.045 146.531 106.652 145.871 105.674C144.512 103.662 143.803 101.113 144.075 99.2057Z" fill="#392818"/>
</svg>
