<svg width="200" height="200" viewBox="0 0 200 200" fill="none" xmlns="http://www.w3.org/2000/svg">
<path fill-rule="evenodd" clip-rule="evenodd" d="M100 0C44.7833 0 0 44.7667 0 100C0 155.225 44.7833 200 100 200C155.225 200 200 155.225 200 100C200 44.7667 155.225 0 100 0ZM127.067 152.9L123.975 142.108L131.442 149.05L138.5 155.583L151.042 166.667V62.0167C151.042 55.3667 145.675 50 139.083 50H60.9167C54.325 50 48.9583 55.3667 48.9583 62.0167V140.883C48.9583 147.533 54.325 152.9 60.9167 152.9H127.067ZM116.567 126.183L112.717 121.458C120.358 119.3 123.275 114.517 123.275 114.517C120.883 116.092 118.608 117.2 116.567 117.958C113.65 119.183 110.85 120 108.108 120.467C102.508 121.517 97.375 121.225 93 120.408C89.675 119.767 86.8167 118.833 84.425 117.9C83.0833 117.375 81.625 116.733 80.1667 115.917L79.9333 115.783L79.875 115.758L79.6417 115.625L79.4083 115.45L77.775 114.458C77.775 114.458 80.575 119.125 87.9833 121.342L84.075 126.183C71.1833 125.775 66.2833 117.317 66.2833 117.317C66.2833 98.5333 74.6833 83.3083 74.6833 83.3083C83.0833 77.0083 91.075 77.1833 91.075 77.1833L91.6583 77.8833C81.1583 80.9167 76.3167 85.525 76.3167 85.525L79.7583 83.8333C86 81.0917 90.9583 80.3333 93 80.1583L93.9917 80.0417C97.55 79.575 101.575 79.4583 105.775 79.925C111.317 80.5667 117.267 82.2 123.333 85.525C123.333 85.525 118.725 81.15 108.808 78.1167L109.625 77.1833C109.625 77.1833 117.617 77.0083 126.017 83.3083C126.017 83.3083 134.417 98.5333 134.417 117.317C134.417 117.317 129.642 125.458 116.567 126.183ZM110.733 98.9417C107.408 98.9417 104.783 101.858 104.783 105.417C104.783 108.975 107.467 111.892 110.733 111.892C114.058 111.892 116.683 108.975 116.683 105.417C116.683 101.858 114.058 98.9417 110.733 98.9417ZM89.4417 98.9417C86.1167 98.9417 83.4917 101.858 83.4917 105.417C83.4917 108.975 86.175 111.892 89.4417 111.892C92.7667 111.892 95.3917 108.975 95.3917 105.417C95.45 101.858 92.7667 98.9417 89.4417 98.9417Z" fill="#392818"/>
</svg>
