<svg width="200" height="200" viewBox="0 0 200 200" fill="none" xmlns="http://www.w3.org/2000/svg">
<path fill-rule="evenodd" clip-rule="evenodd" d="M0 100C0 44.7717 44.7717 0 100 0C155.228 0 200 44.7717 200 100C200 155.228 155.228 200 100 200C44.7717 200 0 155.228 0 100ZM80 160C91.0458 160 100 151.046 100 140V120H80C68.9542 120 60 128.954 60 140C60 151.046 68.9542 160 80 160ZM60 100C60 111.046 68.9542 120 80 120H100V80H80C68.9542 80 60 88.9542 60 100ZM60 60C60 71.0458 68.9542 80 80 80H100V40H80C68.9542 40 60 48.9542 60 60ZM100 40V80H120C131.046 80 140 71.0458 140 60C140 48.9542 131.046 40 120 40H100ZM140 100C140 88.9542 131.046 80 120 80C108.954 80 100 88.9542 100 100C100 111.046 108.954 120 120 120C131.046 120 140 111.046 140 100Z" fill="#392818"/>
</svg>
