<svg width="200" height="200" viewBox="0 0 200 200" fill="none" xmlns="http://www.w3.org/2000/svg">
<path fill-rule="evenodd" clip-rule="evenodd" d="M83.4042 1.32019C86.7141 0.752808 91.2276 0.266464 95.0236 0.0580292C96.6322 -0.0346069 103.831 -0.0114441 105.497 0.0927734C121.456 1.06544 136.108 5.38457 149.544 13.0733C178.095 29.4235 196.832 58.6384 199.644 91.2229C200.119 96.8273 200.119 103.219 199.644 108.824C197.908 128.844 190.108 147.95 177.285 163.56C161.846 182.353 139.985 194.951 116.144 198.796C110.069 199.768 107.002 200 100 200C93.9936 200 92.2576 199.907 87.8483 199.363C74.5392 197.719 61.9246 193.539 50.4557 186.973C21.9049 170.623 3.16813 141.408 0.355872 108.824C-0.118624 103.219 -0.118624 96.8273 0.355872 91.2229C1.8488 73.9348 7.98252 57.0288 17.8775 42.8788C33.4201 20.6578 56.844 5.80144 83.4042 1.32019ZM70.4887 44.6736V41.9524V39.2312H67.7111H64.9336V47.4526V55.674H67.7111H70.4887V52.9529V50.2317H72.9769H75.4651V52.9529V55.674H78.2426H81.0202V47.4526V39.2312H78.2426H75.4651V41.9524V44.6736H72.9769H70.4887ZM98.4955 44.7894V42.0103V39.2312H90.9151H83.3348V42.0103V44.7894H85.7073H88.0797V50.2317V55.674H90.8573H93.6348V50.2317V44.7894H96.0652H98.4955ZM110.057 44.9052C110.022 44.9052 109.212 43.6314 108.263 42.0682L106.539 39.2312H103.68H100.81V47.4526V55.674H103.53H106.249L106.273 51.737L106.307 47.8116L108.147 50.6485C109.154 52.2118 110.022 53.4508 110.069 53.3929C110.103 53.3589 110.56 52.6519 111.19 51.6788C111.418 51.3254 111.67 50.9369 111.932 50.5328L113.714 47.7653L113.749 51.7139L113.772 55.674H116.549H119.327V47.4526V39.2312L116.422 39.2544L113.517 39.2891L111.828 42.0914C110.89 43.6314 110.092 44.8936 110.057 44.9052ZM127.486 50.2317V44.7662V39.2891L124.743 39.2544L121.989 39.2312V47.4526V55.674H128.585H135.182V52.9529V50.2317H131.34H127.486ZM141.067 85.2309C142.194 72.6022 142.964 63.9882 142.994 63.7449L143.063 63.0849H100H56.925L56.9945 63.6291C57.0292 63.9417 57.4805 68.8977 57.9898 74.6643C58.7304 83.0362 62.8736 129.586 64.4591 147.302C64.6443 149.328 64.8063 150.996 64.8294 151.019C64.8526 151.042 72.7686 153.242 82.4089 155.917L99.9421 160.792L117.533 155.917C127.208 153.242 135.147 151.031 135.159 151.019C135.182 151.007 136.941 131.508 139.059 107.7C139.79 99.5285 140.477 91.8314 141.067 85.2309ZM74.1234 94.8093C73.9422 92.843 73.7692 90.9646 73.625 89.3933L72.8496 80.9172H99.8496H126.85L126.792 81.3456C126.757 81.5888 126.572 83.812 126.387 86.3016C126.201 88.7796 126.016 91.0955 125.97 91.4197L125.912 92.0334H105.254C93.901 92.0334 84.6078 92.045 84.6078 92.0682C84.6078 92.0913 84.8625 94.4651 85.1865 97.36C85.3208 98.6046 85.4466 99.7593 85.5464 100.675C85.6787 101.889 85.7652 102.683 85.7652 102.71C85.7652 102.768 94.5144 102.802 105.208 102.802C115.901 102.802 124.651 102.849 124.651 102.895C124.651 102.976 122.637 127.548 122.024 134.993L121.931 136.093L111.006 139.069L100.081 142.045L89.0172 139.081C86.0249 138.278 83.2983 137.545 81.2978 137.008C79.2285 136.452 77.9361 136.105 77.9302 136.105C77.9302 136.102 77.915 135.949 77.8871 135.669C77.7799 134.59 77.4856 131.627 77.1548 128.161C77.0882 127.482 77.0229 126.816 76.9601 126.175C76.6192 122.695 76.349 119.938 76.31 119.674L76.2405 119.129H81.6336H87.015L87.0845 119.558C87.1192 119.801 87.3044 121.584 87.5011 123.529C87.6979 125.475 87.883 127.165 87.9062 127.304C87.9525 127.501 88.7163 127.756 93.9589 129.25L99.9653 130.963L105.972 129.261C109.27 128.323 111.99 127.548 112.001 127.536C112.024 127.524 113.193 113.976 113.193 113.756C113.193 113.722 104.791 113.687 94.526 113.687H75.8586L75.1295 105.778C74.8685 102.898 74.4802 98.683 74.1234 94.8093Z" fill="#392818"/>
</svg>
