<svg width="200" height="200" viewBox="0 0 200 200" fill="none" xmlns="http://www.w3.org/2000/svg">
<path fill-rule="evenodd" clip-rule="evenodd" d="M44.7859 16.4958C58.397 7.40872 73.6899 1.92514 90.1562 0.240906C95.1625 -0.268295 109.634 0.0842285 114.406 0.789261C162.397 8.19209 197.793 47.5956 199.905 96.0078C201.431 130.711 184.456 164.043 155.474 183.353C142.371 192.088 128.33 197.415 113.115 199.412C106.935 200.196 92.9331 200.196 86.7534 199.412C53.86 195.065 25.3471 174.697 10.4062 144.772C5.67364 135.255 2.66199 125.893 0.901938 114.965C-0.232318 107.915 -0.310542 93.2268 0.745489 86.4115C4.18737 63.733 13.7308 44.6188 29.3366 29.0689C34.4603 23.977 38.4106 20.7652 44.7859 16.4958ZM84.6804 41.3678V38.2343V35.1008H77.2491H69.8178V43.7179V52.3349H77.2491H84.6804V49.2015V46.068H80.3781H76.0757V43.7179V41.3678H80.3781H84.6804ZM104.628 41.3286V38.2343V35.1008H97.3919H90.1562V38.1168V41.1719L92.7767 43.6004L95.4363 46.0288L92.8158 46.068H90.1562V49.2015V52.3349H97.3919H104.628V49.084V45.8721L101.968 43.7179L99.3475 41.5636L102.007 41.4461L104.628 41.3286ZM124.575 41.3678V38.2343V35.1008H117.339H110.103L110.143 38.3126V41.5636L112.724 43.7179L115.305 45.8721L112.724 45.9897L110.103 46.1072V49.2015V52.3349H117.339H124.575V49.2015V46.1072L121.837 43.7179L119.06 41.3678H121.837H124.575ZM143.31 108.346C145.696 82.6122 147.729 61.2262 147.808 60.8345C147.964 60.2078 145.5 60.1686 100.052 60.1686H52.139L52.3737 61.2262C52.491 61.8529 54.4466 83.1213 56.7543 108.542C59.0228 133.962 60.9393 154.8 60.9784 154.839C61.0175 154.878 69.8178 157.463 80.5736 160.557L100.091 166.237L119.412 160.832C120.237 160.598 121.05 160.367 121.848 160.141C131.351 157.447 138.779 155.342 138.851 155.27C138.89 155.191 140.885 134.079 143.31 108.346ZM71.8125 90.8766C71.5387 90.6416 70.3653 79.7528 70.5609 79.5569C70.6391 79.4394 83.9764 79.3611 100.208 79.3611H129.66V80.3403C129.66 81.5545 128.917 89.0749 128.682 90.1716C128.525 90.8374 125.748 92.2475 114.21 97.3786C106.349 100.865 99.9343 103.841 99.9343 103.959C99.9343 104.076 106.114 104.037 113.624 103.92C126.179 103.724 127.313 103.763 127.313 104.351C127.313 105.604 124.536 138.701 124.419 138.819C124.223 138.975 100.717 145.556 100.208 145.556C99.5822 145.556 76.3495 138.819 75.9975 138.545C75.8802 138.427 75.5673 135.489 75.3326 132.043C75.0979 128.596 74.785 124.601 74.6677 123.112L74.433 120.488H80.2999H86.1667L86.4405 125.188L86.7143 129.888L89.5304 130.711C91.0558 131.142 94.1065 132.043 96.2968 132.709L100.286 133.923L106.974 132.004C110.69 130.946 113.78 129.928 113.858 129.693C113.936 129.497 114.406 126.089 114.914 122.133L115.814 115.004H103.454C92.2682 114.965 74.8633 114.652 74.5895 114.417C74.4721 114.339 72.9859 103.489 73.0641 103.45C73.1032 103.411 79.4003 100.786 87.0272 97.6136C94.6541 94.4409 101.029 91.6992 101.186 91.5816C101.342 91.425 94.8105 91.2291 86.7143 91.1508C78.618 91.0725 71.8907 90.955 71.8125 90.8766Z" fill="#392818"/>
</svg>
