<svg width="200" height="201" viewBox="0 0 200 201" fill="none" xmlns="http://www.w3.org/2000/svg">
<path d="M96.641 0.063736C72.7774 0.91423 50.4771 9.9819 32.7545 26.0286C30.7784 27.8296 26.6886 31.9695 25.0251 33.8705C14.294 46.14 6.85224 60.2606 2.97503 75.7319C-0.0141765 87.6763 -0.764605 100.296 0.78628 112.666C3.20016 132.002 11.4173 150.425 24.2497 165.321C39.9711 183.556 61.8712 195.613 85.4471 199.027C90.6501 199.778 94.1521 200.015 99.9554 200.015C104.921 200.015 107.097 199.915 111.212 199.453C148.208 195.35 180.039 170.724 193.471 135.804C196.973 126.686 199.049 117.281 199.85 106.912C200.05 104.261 200.05 95.7058 199.85 93.1544C199.487 88.6518 198.999 84.8997 198.312 81.3351C194.059 59.0974 182.465 39.061 165.305 24.2651C146.257 7.84319 121.618 -0.836777 96.641 0.063736ZM102.394 37.9729C104.333 38.6107 102.769 37.1099 132.511 66.8268C147.733 82.023 160.452 94.8053 160.765 95.2181C161.878 96.6814 162.466 98.3699 162.466 100.158C162.466 101.547 162.278 102.335 161.591 103.785L161.028 104.974L132.999 133.002C106.747 159.242 104.908 161.056 104.083 161.468C101.018 163.032 97.8292 162.782 95.2027 160.78C94.7899 160.468 82.0076 147.748 66.8115 132.527C36.9694 102.66 38.5829 104.336 37.945 102.347C37.5448 101.071 37.5448 98.57 37.9575 97.4068C38.6829 95.3681 37.7949 96.3187 58.2316 75.857C68.65 65.4261 77.2424 56.8837 77.3175 56.8837C77.38 56.8837 80.6319 60.073 84.5216 63.9627L91.6131 71.0543L91.4505 71.442C90.8627 72.8428 90.7376 75.5443 91.1879 77.2078C91.8508 79.6842 93.6143 81.8854 95.9031 83.0861L96.7661 83.5364V100.709V117.868L96.1782 118.156C94.1521 119.132 92.4136 120.995 91.5881 123.096C90.55 125.71 90.6501 128.324 91.9133 130.926C92.4636 132.064 92.6887 132.364 93.6893 133.377C94.6649 134.353 95.0151 134.603 96.0156 135.091C96.666 135.416 97.604 135.766 98.0793 135.879C99.28 136.166 101.431 136.166 102.582 135.866C105.696 135.078 108.11 132.89 109.161 129.95C110.699 125.598 109.186 121.145 105.321 118.644L104.52 118.131V101.109V84.0867L111.024 90.5904C115.602 95.168 117.503 97.1442 117.453 97.2817C117.178 97.9446 116.89 99.3829 116.853 100.308C116.69 104.361 119.116 108.075 122.856 109.489C125.12 110.339 127.258 110.364 129.597 109.539C132.436 108.551 134.763 105.949 135.501 102.935C135.801 101.709 135.763 99.4955 135.426 98.2448C134.688 95.4682 132.561 93.0543 129.897 91.9662C128.096 91.2408 125.47 91.0782 123.794 91.591L123.119 91.8036L116.177 84.8621L109.236 77.9207L109.473 77.0077C109.786 75.7945 109.786 73.5432 109.473 72.3925C109.361 71.9423 108.998 71.0418 108.685 70.3914C108.185 69.3908 107.922 69.0281 106.972 68.0651C106.009 67.102 105.646 66.8394 104.646 66.3516C103.995 66.0264 103.095 65.6637 102.644 65.5511C101.531 65.2509 99.1174 65.2509 98.0168 65.5511L97.2163 65.7762L90.0247 58.5846L82.8456 51.4055L88.3738 45.7898C91.413 42.7131 94.2521 39.899 94.6649 39.5363C95.5404 38.7858 96.8786 38.0854 97.9543 37.8228C99.0424 37.5476 101.331 37.6227 102.394 37.9729Z" fill="#392818"/>
</svg>
