<svg width="200" height="200" viewBox="0 0 200 200" fill="none" xmlns="http://www.w3.org/2000/svg">
<path d="M97.319 0.0561218C89.7531 0.290695 83.1959 1.1586 76.1461 2.88269C53.3076 8.43028 32.9441 22.1292 19.0087 41.3288C10.9383 52.4357 5.19057 65.2198 2.31668 78.4495C-2.21115 99.2677 -0.0645329 121.036 8.42808 140.235C17.2491 160.221 32.3693 176.793 51.4894 187.454C63.6301 194.222 77.6593 198.479 91.5126 199.593C95.7589 199.934 98.7032 200.051 101.542 199.98C109.741 199.758 116.955 198.808 124.416 196.954C132.392 194.961 141.037 191.571 148.11 187.642C162.304 179.772 174.257 168.783 183.207 155.389C190.269 144.821 195.266 132.928 197.835 120.555C199.137 114.268 199.793 108.428 199.981 101.555C200.122 95.9954 199.465 88.0787 198.362 82.0854C194.972 63.613 186.738 46.9116 174.116 32.896C172.298 30.8787 168.192 26.8323 166.058 24.9675C158.21 18.0829 149.647 12.6056 140.228 8.45374C128.615 3.31665 115.677 0.396255 103.208 0.103043C101.776 0.0678558 100.451 0.0209351 100.252 0.00921631C100.064 -0.0142517 98.7384 0.00921631 97.319 0.0561218ZM78.023 59.8598C80.1461 60.2117 80.5919 60.3055 81.7179 60.6339C84.0874 61.3142 85.9877 62.2173 88.2751 63.742C89.7062 64.7037 89.929 64.7741 90.6915 64.5512C91.4891 64.3049 93.8352 63.8593 95.6885 63.5895C97.3894 63.3432 97.9524 63.3197 102.187 63.3197C107.184 63.3197 108.017 63.3901 111.982 64.1407C112.815 64.3049 113.612 64.434 113.753 64.434C113.894 64.434 114.715 64.0117 115.571 63.4839C118.034 61.9944 120.216 60.9389 121.776 60.5166C122.715 60.2469 125.073 59.8716 126.292 59.7895C127.125 59.7308 127.383 59.7426 127.477 59.8716C127.641 60.071 128.298 62.6512 128.533 63.9765C128.803 65.5834 128.873 69.055 128.65 70.697C128.451 72.2803 128.439 72.2334 129.295 73.2303C130.609 74.7668 132.087 77.4995 132.791 79.7162C134.128 83.9033 134.316 88.9114 133.319 93.8725C132.498 98.0127 130.973 100.874 128.158 103.619C124.556 107.102 119.9 109.131 113.741 109.87C112.908 109.976 111.97 110.093 111.665 110.128C111.348 110.163 111.102 110.234 111.102 110.269C111.102 110.316 111.642 110.668 112.31 111.055C114.398 112.275 115.524 113.354 116.298 114.855C117.342 116.849 117.401 117.459 117.553 126.067L117.683 133.339L117.964 133.82C118.386 134.535 119.489 135.614 120.486 136.283C121.272 136.799 121.366 136.904 121.401 137.268C121.424 137.596 121.366 137.749 121.131 137.972C120.826 138.253 120.756 138.265 119.278 138.253C117.553 138.253 116.721 138.054 115.407 137.362C114.574 136.916 113.225 135.638 112.944 135.016C112.556 134.183 112.51 133.386 112.51 127.146C112.51 120.191 112.486 119.992 111.735 119.101C111.313 118.608 110.504 118.08 110.07 118.022L109.812 117.975V125.985C109.812 130.536 109.859 134.441 109.929 135.028C110.07 136.248 110.257 136.858 110.797 137.737C111.184 138.371 112.04 140.024 112.04 140.13C112.04 140.294 111.125 140.329 110.422 140.2C107.219 139.602 105.471 138.054 104.662 135.087C104.228 133.515 104.181 132.624 104.181 124.824V117.212H102.656H101.131V125.117C101.131 133.491 101.108 133.937 100.557 135.532C99.5947 138.3 98.2105 139.59 95.4891 140.224C94.5507 140.446 94.3396 140.458 93.8704 140.329C93.5771 140.247 93.2956 140.153 93.2487 140.106C93.2017 140.059 93.4129 139.625 93.7061 139.145C94.4217 137.972 94.8909 136.975 95.1841 135.943C95.4187 135.133 95.4305 134.793 95.4657 126.56L95.5126 118.033H95.2311C94.8792 118.033 94.105 118.585 93.7061 119.112C93.0258 120.004 93.0258 120.086 92.9789 127.299C92.9437 134.441 92.9554 134.289 92.2985 135.415C91.9114 136.083 90.8674 137.057 90.1519 137.421C88.9672 138.019 87.9349 138.253 86.3513 138.253C85.1314 138.265 84.8147 138.23 84.5566 138.066C83.7003 137.503 83.9115 136.928 85.3191 135.978C86.9027 134.899 87.7472 133.644 88.017 131.943C88.1226 131.263 88.0991 130.407 87.9466 127.815C87.759 124.683 87.6768 123.651 87.6065 123.593C87.5947 123.581 87.1607 123.663 86.6446 123.792C83.7707 124.507 80.369 124.003 77.2722 122.408C76.4159 121.962 75.9936 121.646 75.1491 120.789C74.0464 119.699 73.5303 118.995 72.24 116.802C71.0787 114.831 70.5743 114.21 68.1696 111.829C66.938 110.621 65.9409 109.577 65.9409 109.507C65.9409 109.272 66.4336 108.756 66.8559 108.545C67.8295 108.064 68.9438 108.158 70.3749 108.85C71.4189 109.366 72.4746 110.328 74.0347 112.169C77.1667 115.864 79.2663 117.283 82.1754 117.681C83.9115 117.904 85.9643 117.435 87.5361 116.45C88.1578 116.063 88.2399 115.957 88.8029 114.82C89.7531 112.861 90.9026 111.864 93.3542 110.867C93.9877 110.597 94.5507 110.351 94.6094 110.292C94.6563 110.234 94.4803 110.163 94.1988 110.128C89.4129 109.483 87.2076 109.038 84.8264 108.275C77.1315 105.789 72.8382 101.566 71.1139 94.7522C70.1872 91.1046 70.0113 85.991 70.6916 82.6132C71.4306 78.9773 72.3573 76.8779 74.3749 74.2976C74.7972 73.7581 75.2195 73.2303 75.3016 73.1131C75.4306 72.9371 75.4071 72.6674 75.1373 71.4476C74.8441 70.1458 74.8206 69.7822 74.8089 67.6593C74.8089 65.7006 74.8558 65.0908 75.0787 63.9648C75.325 62.6981 75.8529 60.6808 76.1344 59.9419C76.2869 59.5666 76.2986 59.5666 78.023 59.8598Z" fill="#392818"/>
</svg>
