<svg width="200" height="200" viewBox="0 0 200 200" fill="none" xmlns="http://www.w3.org/2000/svg">
<path fill-rule="evenodd" clip-rule="evenodd" d="M29.1242 29.146C45.2953 12.977 65.7026 3.03938 88.5947 0.269867C90.2648 0.0662384 96.1303 -0.055954 101.629 0.0255127C109.694 0.106964 112.587 0.310608 116.66 1.0437C137.8 4.79068 155.927 14.1989 170.876 29.146C185.906 44.1339 195.193 62.1357 199.063 83.5994C199.878 88.2016 200 90.1158 200 100.013C200 109.91 199.878 111.824 199.063 116.426C195.193 137.89 185.906 155.892 170.876 170.879C155.886 185.908 137.882 195.194 116.415 199.063C111.813 199.878 109.898 200 100 200C90.1018 200 88.1874 199.878 83.5845 199.063C62.1181 195.194 44.1141 185.908 29.1242 170.879C14.0937 155.892 4.80652 137.89 0.936863 116.426C0.1222 111.824 0 109.91 0 100.013C0 90.1158 0.1222 88.2016 0.936863 83.5994C4.80652 62.1357 14.0937 44.1339 29.1242 29.146ZM163.91 55.6192C162.566 52.7683 160.285 50.4875 157.434 49.1435L155.193 48.0845L100.611 48.0031C48.3757 47.9284 45.0138 47.888 42.3065 49.1992C42.0603 49.3185 41.8195 49.4489 41.5479 49.5915C39.5112 50.6504 37.2301 53.1756 36.0896 55.5785L35.0305 57.8593V100.013V142.166L36.0896 144.447C37.4338 147.257 39.6741 149.497 42.5662 150.882L44.8065 151.941H100H155.193L157.434 150.882C160.285 149.538 162.566 147.257 163.91 144.406L164.969 142.166V100.013V57.8593L163.91 55.6192ZM47.8615 139.112V100.013V60.9139H51.7719H55.6823L77.8411 74.5985L100 88.2832L122.159 74.5985L144.318 60.9139H148.228H152.138V100.013V139.112H145.621H139.104V110.561C139.104 87.8759 138.982 82.0518 138.615 82.2147C138.33 82.2961 129.532 87.8352 119.063 94.4738L100 106.529L80.9776 94.4738C70.4684 87.8352 61.6701 82.2961 61.4257 82.2147C61.0183 82.0518 60.8961 87.8759 60.8961 110.561V139.112H54.3788H47.8615Z" fill="#392818"/>
</svg>
