<svg width="200" height="200" viewBox="0 0 200 200" fill="none" xmlns="http://www.w3.org/2000/svg">
<path d="M92.682 0.221832C73.3138 1.63429 54.8238 8.69661 38.9194 20.7269C33.748 24.672 24.4786 33.9261 20.5269 39.0889C10.1354 52.8239 3.25649 69.1402 0.768386 85.9924C-0.256129 92.8599 -0.256129 107.277 0.768386 114.144C3.25649 130.996 10.1354 147.313 20.5269 161.048C24.4786 166.21 33.748 175.465 38.9194 179.41C52.7747 189.881 68.7279 196.603 85.8519 199.233C92.8284 200.256 106.342 200.256 113.807 199.233C130.735 196.846 147.079 189.979 161.081 179.41C166.252 175.465 175.521 166.21 179.473 161.048C189.865 147.313 196.744 130.996 199.232 114.144C200.256 107.277 200.256 92.8599 199.232 85.9924C196.744 69.1402 189.865 52.8239 179.473 39.0889C175.521 33.9261 166.252 24.672 161.081 20.7269C150.201 12.4957 137.078 6.16391 124.149 2.90065C115.075 0.611481 102.342 -0.508743 92.682 0.221832ZM62.3857 45.8103C67.1179 47.2227 70.7281 51.9959 70.7281 56.769C70.6794 60.1297 67.7522 64.5132 64.2395 66.3153C61.849 67.533 56.5313 67.7278 53.848 66.705C44.8225 63.2469 43.4565 51.8985 51.5063 47.174C55.3116 44.9336 58.2876 44.5926 62.3857 45.8103ZM139.761 77.4202C144.688 78.9301 149.372 82.8752 151.275 87.1126C153.47 92.0806 153.665 94.9542 153.665 118.869V141.468H141.468H129.272V122.57C129.272 107.277 129.126 103.185 128.54 101.237C127.418 97.3895 124.93 95.6361 120.734 95.6361C117.612 95.6361 115.709 96.5128 113.758 98.8994C111.221 101.919 111.075 103.185 110.879 123.057L110.684 141.468H98.4876H86.3398V109.566V77.6637H97.8046H109.269V82.6804V87.6484L112.831 84.239C116.783 80.3912 120.929 78.0047 124.881 77.2254C126.345 76.9331 128.003 76.5922 128.54 76.4948C130.248 76.1051 137.273 76.6896 139.761 77.4202ZM70.7281 109.566V141.468H58.5315H46.3349V109.566V77.6637H58.5315H70.7281V109.566Z" fill="#392818"/>
</svg>
