<svg width="200" height="200" viewBox="0 0 200 200" fill="none" xmlns="http://www.w3.org/2000/svg">
<path fill-rule="evenodd" clip-rule="evenodd" d="M94.2193 0.17128C69.5938 1.65604 46.7118 11.9202 29.319 29.3069C17.1354 41.5077 8.35282 56.4843 3.70324 72.9888C-2.90519 96.4651 -0.601924 122.029 10.0749 143.697C17.5443 158.868 27.8983 171.198 41.395 181.031C66.5371 199.322 98.955 204.745 129.091 195.728C151.198 189.101 171.196 174.081 183.81 154.65C192.7 140.943 197.823 126.397 199.631 109.677C200.126 105.072 200.126 94.8943 199.61 90.3109C198.232 77.5291 195.154 66.77 189.816 55.9679C179.849 35.8054 164.092 20.0756 143.879 10.1342C128.661 2.64586 111.203 -0.840073 94.2193 0.17128ZM147.733 44.2405L161.918 50.244L161.983 99.9295L162.026 149.636L161.509 149.873C161.229 150.002 154.621 152.778 146.828 156.049L132.686 162.009L128.941 158.265C126.874 156.221 115.874 145.118 104.487 133.605C93.1 122.115 83.7147 112.69 83.6286 112.69C83.521 112.69 76.0946 118.22 67.0968 124.955C58.099 131.712 50.6941 137.221 50.6295 137.221C50.565 137.221 47.7666 135.37 44.3871 133.132L38.2522 129.044L38.2952 98.0144L38.3598 67.0067L44.4947 64.9625L50.6511 62.9183L67.0538 75.2051C76.0731 81.9834 83.521 87.5135 83.6071 87.5135C83.7147 87.5135 94.9297 76.4101 108.534 62.8752C122.16 49.3403 133.353 38.2584 133.418 38.2369C133.504 38.2369 139.94 40.9482 147.733 44.2405ZM116.714 87.7502C107.716 94.5069 100.397 100.08 100.44 100.166C100.483 100.252 107.845 105.804 116.8 112.518L133.073 124.718L133.138 112.345C133.16 105.524 133.16 94.4639 133.138 87.7287L133.073 75.4849L116.714 87.7502ZM51.017 116.197C50.8018 116.348 50.7372 113.099 50.7372 100.102C50.7372 87.1047 50.8018 83.8555 51.017 84.0061C53.105 85.6415 70.993 99.9941 71.036 100.059C71.0576 100.145 54.7625 113.249 51.017 116.197Z" fill="#392818"/>
</svg>
