<svg width="200" height="200" viewBox="0 0 200 200" fill="none" xmlns="http://www.w3.org/2000/svg">
<path fill-rule="evenodd" clip-rule="evenodd" d="M29.3425 29.298C46.2426 12.36 67.9411 2.34157 92.1873 0.219009C96.9855 -0.20549 106.412 0.00675964 112.145 0.685974C125.138 2.21422 138.557 6.71404 150.234 13.5062C181.147 31.5055 200 64.2354 200 99.9792C200 129.737 187.006 157.416 163.907 176.858C156.136 183.396 144.077 190.4 134.862 193.711C115.16 200.801 95.8391 201.904 76.009 196.98C49.5547 190.443 27.2618 173.717 13.5464 150.156C1.82669 129.992 -2.46204 106.474 1.3596 83.4233C4.75661 63.0043 14.523 44.071 29.3425 29.298ZM158.429 84.527C154.268 60.5845 135.244 41.5664 111.423 37.4062C106.667 36.5572 99.321 36.26 95.2021 36.727C68.8328 39.741 48.3233 58.7591 43.7798 84.4845C42.8881 89.4938 42.8881 99.0028 43.7798 104.012C44.6715 108.979 46.8371 115.474 49.2575 120.313L51.2108 124.134L46.0728 139.247C43.2278 147.567 41.0197 154.444 41.1047 154.571C41.2321 154.656 48.2809 152.534 56.7734 149.859C65.2659 147.142 72.612 145.02 73.0791 145.147C73.5462 145.232 76.0514 146.209 78.6417 147.27C89.2998 151.685 99.9579 152.873 111.168 150.921C135.075 146.803 154.268 127.785 158.429 104.055C159.278 99.1726 159.278 89.3664 158.429 84.527ZM52.4847 89.5787C54.7777 67.1645 71.8901 49.3775 94.3529 46.1087C111.975 43.5617 131.338 52.0094 141.189 66.6126C147.856 76.5037 150.743 87.3288 149.682 98.4934C147.771 118.997 133.334 135.723 112.909 141.199C108.196 142.473 97.4951 142.812 92.2298 141.836C87.4315 140.902 81.147 138.652 77.4103 136.487C75.7967 135.553 74.268 134.789 74.0133 134.789C73.8009 134.789 69.6821 136.02 64.9262 137.548C60.1704 139.077 56.094 140.308 55.8817 140.308C55.6694 140.308 56.8583 136.36 58.4719 131.478L61.4868 122.691L59.3636 119.167C53.8435 110.125 51.4656 99.767 52.4847 89.5787ZM89.8518 75.9943C88.2807 72.1313 86.837 69.2446 86.2001 68.6503C84.9262 67.5466 81.5716 67.3768 79.3636 68.3531C77.5801 69.1172 74.3105 73.5746 73.5037 76.3339C72.6545 79.1357 72.6969 83.5082 73.5462 86.4373C75.6693 93.654 85.096 105.795 93.4612 112.078C97.2403 114.922 101.656 117.087 108.281 119.294C113.886 121.205 114.395 121.29 117.665 121.12C125.436 120.61 130.616 115.771 130.616 109.021V107.153L124.459 104.182C121.104 102.569 117.75 101.125 117.07 100.998C116.719 100.921 116.478 100.847 116.244 100.865C115.575 100.916 114.964 101.721 111.975 105.371C109.342 108.554 108.918 108.639 104.501 106.559C98.8964 103.885 93.9707 99.7245 89.8094 94.0361C88.7478 92.6352 87.3041 90.0457 87.3041 89.6211C87.3041 89.5362 88.1958 88.4325 89.2574 87.159C90.8229 85.3545 91.7094 84.3886 91.9653 83.2775C92.2995 81.8269 91.559 80.1288 89.8518 75.9943Z" fill="#392818"/>
</svg>
